<?xml version="1.0" encoding="UTF-8" standalone="no"?>
<svg
   width="24"
   height="24"
   viewBox="0 0 24 24"
   fill="none"
   stroke="currentColor"
   stroke-width="2"
   stroke-linecap="round"
   stroke-linejoin="round"
   class="lucide lucide-plane-icon lucide-plane"
   version="1.1"
   id="svg1"
   sodipodi:docname="plane.svg"
   inkscape:version="1.4 (86a8ad7, 2024-10-11)"
   xmlns:inkscape="http://www.inkscape.org/namespaces/inkscape"
   xmlns:sodipodi="http://sodipodi.sourceforge.net/DTD/sodipodi-0.dtd"
   xmlns="http://www.w3.org/2000/svg"
   xmlns:svg="http://www.w3.org/2000/svg">
  <defs
     id="defs1" />
  <sodipodi:namedview
     id="namedview1"
     pagecolor="#ffffff"
     bordercolor="#000000"
     borderopacity="0.25"
     inkscape:showpageshadow="2"
     inkscape:pageopacity="0.0"
     inkscape:pagecheckerboard="0"
     inkscape:deskcolor="#d1d1d1"
     inkscape:zoom="33.625"
     inkscape:cx="11.98513"
     inkscape:cy="14.379182"
     inkscape:window-width="1920"
     inkscape:window-height="1009"
     inkscape:window-x="-8"
     inkscape:window-y="-8"
     inkscape:window-maximized="1"
     inkscape:current-layer="svg1" />
  <circle
     style="fill:#000000;stroke:#005883;stroke-width:0"
     id="path2"
     cx="12"
     cy="12"
     r="11.241635" />
  <path
     d="m 15.953117,17.061826 -1.248223,-5.686354 2.427099,-2.4270993 c 1.040186,-1.0401847 1.386915,-2.4270982 1.040186,-3.1205564 -0.693464,-0.3467311 -2.08037,0 -3.120563,1.0401861 l -2.427101,2.4271 L 6.9381626,8.0468807 C 6.5914309,7.9775436 6.314029,8.1162177 6.1753697,8.3936095 L 5.9672992,8.7403411 C 5.8286436,9.0870727 5.8977213,9.4338025 6.1753697,9.641834 l 3.6753242,2.427099 -1.3869154,2.080369 H 6.3834086 l -0.6934613,0.693462 2.0803693,1.386915 1.3869159,2.080379 0.6934614,-0.693463 v -2.080377 l 2.0803771,-1.386916 2.427101,3.675331 c 0.208072,0.277402 0.554802,0.346732 0.901491,0.208073 l 0.346731,-0.138656 c 0.277402,-0.208072 0.41606,-0.485389 0.34673,-0.83212 z"
     id="path1"
     style="fill:none;fill-opacity:1;stroke:#ffffff;stroke-width:1.38692;stroke-opacity:1" />
</svg>
