<?xml version="1.0" encoding="UTF-8" standalone="no"?>
<!-- Created with Inkscape (http://www.inkscape.org/) -->

<svg
   width="96.831795mm"
   height="86.496475mm"
   viewBox="0 0 96.831795 86.496475"
   version="1.1"
   id="svg1"
   xmlns="http://www.w3.org/2000/svg"
   xmlns:svg="http://www.w3.org/2000/svg">
  <defs
     id="defs1" />
  <g
     id="layer1"
     transform="translate(-50.454054,-51.124663)">
    <g
       id="g5"
       transform="matrix(0.80165276,0,0,0.80165276,17.621411,8.2618064)">
      <g
         id="g17"
         transform="matrix(0,2.0421236,-2.7995997,0,484.52984,-198.68804)"
         style="display:inline;fill:#f9f9f9;fill-opacity:1">
        <path
           id="path16"
           style="fill:#005883;fill-opacity:1;stroke:#005883;stroke-width:0;stroke-dasharray:none;stroke-opacity:1"
           d="m 150.05331,149.2823 c 0,0 -6.88624,2.79577 -8.66911,4.66165 -1.63652,1.71273 -0.95874,4.49786 -0.95874,4.49786 l 9.72704,-3.24842 9.72743,3.24842 c 0,0 0.67778,-2.78513 -0.95874,-4.49786 -1.78302,-1.86604 -0.52375,-0.55414 -8.86788,-4.66165 z" />
      </g>
      <path
         id="path1"
         style="display:inline;fill:#005883;fill-opacity:1;stroke:#005883;stroke-width:0;stroke-dasharray:none;stroke-opacity:1"
         d="m 75.094467,53.468104 0.482359,46.11912 h 19.79156 l -4.0628,-15.87603 -2.38952,-9.60355 c 0,0 16.392264,3.19894 21.682914,9.30228 3.35293,3.86797 5.29567,11.12422 6.30193,16.1773 16.48861,0 18.48452,-0.0227 23.35568,-0.0227 6.09537,0 11.03654,5.904596 11.03654,7.841386 0,2.41555 -4.94117,7.84087 -11.03654,7.84087 -4.90267,0 -8.22354,-0.0439 -22.56038,-0.0439 -1.04906,4.99131 -2.95768,11.68218 -6.13036,15.34222 -5.29065,6.10333 -21.683434,9.30227 -21.683434,9.30227 l 2.39003,-9.60355 3.84938,-15.04094 h -20.48041 l 0.122989,33.63738 c 52.518455,-3.53211 47.966035,25.71695 70.558925,5.10642 33.30896,-30.38636 14.03669,-98.943168 -71.228863,-100.478576 z" />
    </g>
  </g>
</svg>
